<svg width="212" height="216" viewBox="0 0 212 216" fill="none" xmlns="http://www.w3.org/2000/svg">
<path fill-rule="evenodd" clip-rule="evenodd" d="M81.0641 1.12976C82.8049 2.01806 84.0951 3.59365 84.6226 5.47544L122.069 139.059L156.279 118.517L164.308 78.6235L127.56 108.414C125.519 110.068 122.723 110.441 120.321 109.378C117.918 108.316 116.312 105.997 116.163 103.374L112.659 41.8381C112.451 38.1953 115.077 35.0041 118.691 34.5057L194.426 24.0639C196.27 23.8097 198.139 24.3001 199.62 25.4267C201.101 26.5532 202.073 28.2232 202.32 30.0676L211.284 96.8879C211.655 99.6568 210.345 102.381 207.949 103.82L168.784 127.338L152.176 209.852C151.701 212.214 150.044 214.165 147.791 215.018C145.538 215.871 143.005 215.505 141.085 214.05L90.3081 175.557C89.1335 174.666 88.27 173.428 87.8406 172.018L57.7952 73.3748L46.9558 113.944L66.7259 144.041C68.4789 146.71 68.2038 150.227 66.0571 152.591L23.222 199.755C21.0505 202.146 17.5249 202.741 14.6891 201.195C11.8532 199.649 10.4436 196.363 11.2774 193.242L31.8114 116.389L1.44412 70.1588C-0.114928 67.7854 -0.0856167 64.7052 1.51832 62.3619L31.6377 18.3575C32.4571 17.1604 33.6282 16.2475 34.989 15.7449L75.4572 0.798432C77.2904 0.121329 79.3233 0.241456 81.0641 1.12976ZM36.6547 98.2621L50.5922 46.0978C51.3989 43.0785 54.1092 40.9598 57.2339 40.9058C60.3586 40.8517 63.1406 42.8755 64.0512 45.8651L100.572 165.77L140.653 196.154L152.54 137.092L121.41 155.786C119.538 156.909 117.249 157.096 115.22 156.289C113.192 155.483 111.655 153.776 111.066 151.674L73.1902 16.5601L41.9312 28.1052L15.7226 66.3959L36.6547 98.2621ZM42.1125 132.071L32.2472 168.994L52.0464 147.194L42.1125 132.071ZM172.523 108.763L196.796 94.187L189.379 38.8923L127.003 47.4922L129.363 88.9297L170.6 55.5007C172.893 53.6418 176.106 53.4212 178.632 54.9493C181.158 56.4774 182.453 59.4257 181.871 62.3197L172.523 108.763Z" fill="#7C4DFF"/>
</svg>
