<svg width="226" height="218" viewBox="0 0 226 218" fill="none" xmlns="http://www.w3.org/2000/svg">
<path d="M15.8889 201.453L39.9131 120.335L2.96937 77.6707C0.269884 74.5533 -0.239087 70.0984 1.68767 66.4524L28.8628 15.0287C30.2153 12.4694 32.6103 10.6218 35.4291 9.9632L76.2074 0.435808C81.4196 -0.781973 86.6665 2.32042 88.1113 7.47436L126.78 145.417C128.408 151.225 134.77 154.281 140.321 151.92L180.065 135.025L189.383 94.0583C191.509 84.7073 180.529 78.0144 173.192 84.1897L148.048 105.353C142.439 110.073 133.827 107.355 131.944 100.271L117.953 47.6386C116.39 41.7589 120.395 35.8577 126.437 35.1395L205.959 25.6866C211.477 25.0307 216.471 28.9992 217.079 34.5227L225.179 108.111C225.661 112.497 223.212 116.682 219.151 118.408L180.065 135.025L163.116 209.539C161.71 215.722 154.977 219.052 149.209 216.416L97.128 192.618C94.2155 191.287 92.1165 188.642 91.4822 185.504L70.7059 82.6928C68.641 72.4749 54.276 71.8386 51.3157 81.8339L39.9131 120.335L70.2791 155.403C73.5521 159.182 73.5304 164.798 70.2284 168.553L32.9862 210.897C25.9085 218.944 12.8456 211.729 15.8889 201.453Z" fill="white"/>
</svg>
