<svg width="368" height="95" viewBox="0 0 368 95" fill="none" xmlns="http://www.w3.org/2000/svg">
<path d="M74.057 92.8728H56.568L21.1075 41.6118H20.5044V92.8728H0V5.54825H17.7303L52.829 56.8092H53.5526V5.54825H74.057V92.8728ZM117.599 94.079C110.885 94.079 105.035 92.6718 100.049 89.8575C95.1042 87.0431 91.3048 83.1031 88.6513 78.0373C85.9978 72.9313 84.6711 67.0212 84.6711 60.307C84.6711 53.5928 85.9978 47.7029 88.6513 42.6371C91.3048 37.5311 95.1042 33.5709 100.049 30.7566C105.035 27.9423 110.885 26.5351 117.599 26.5351C124.313 26.5351 130.143 27.9423 135.088 30.7566C140.073 33.5709 143.893 37.5311 146.546 42.6371C149.2 47.7029 150.526 53.5928 150.526 60.307C150.526 67.0212 149.2 72.9313 146.546 78.0373C143.893 83.1031 140.073 87.0431 135.088 89.8575C130.143 92.6718 124.313 94.079 117.599 94.079ZM117.719 78.761C120.252 78.761 122.423 77.9971 124.232 76.4693C126.042 74.9013 127.409 72.7102 128.333 69.8958C129.298 67.0815 129.781 63.845 129.781 60.1864C129.781 56.5278 129.298 53.2913 128.333 50.477C127.409 47.6626 126.042 45.4916 124.232 43.9638C122.423 42.3958 120.252 41.6118 117.719 41.6118C113.819 41.6118 110.784 43.3004 108.613 46.6776C106.482 50.0548 105.417 54.5578 105.417 60.1864C105.417 65.8151 106.482 70.318 108.613 73.6952C110.784 77.0724 113.819 78.761 117.719 78.761ZM197.566 42.3355H185.625V72.3684C185.625 74.4591 186.168 75.8863 187.253 76.6502C188.339 77.4141 190.007 77.7961 192.259 77.7961C193.947 77.7961 195.998 77.7156 198.41 77.5548V93.114C196.601 93.3553 194.973 93.5362 193.525 93.6568C192.118 93.7774 190.369 93.8377 188.279 93.8377C180.881 93.8377 175.192 92.2697 171.212 89.1338C167.272 85.9576 165.322 81.133 165.362 74.6601V42.3355H156.557V27.3794H165.362V11.6996H185.625V27.3794H197.566V42.3355ZM208.059 27.3794H228.443V92.8728H208.059V27.3794ZM218.311 19.5395C216.422 19.5395 214.673 19.1173 213.065 18.273C211.457 17.3885 210.17 16.2025 209.205 14.7149C208.28 13.1871 207.818 11.5387 207.818 9.76974C207.818 8.00073 208.28 6.37244 209.205 4.88487C210.17 3.35709 211.457 2.17105 213.065 1.32675C214.673 0.442251 216.422 0 218.311 0C220.201 0 221.95 0.442251 223.558 1.32675C225.207 2.17105 226.513 3.35709 227.478 4.88487C228.443 6.37244 228.925 8.00073 228.925 9.76974C228.925 11.5387 228.443 13.1871 227.478 14.7149C226.513 16.2025 225.207 17.3885 223.558 18.273C221.95 19.1173 220.201 19.5395 218.311 19.5395ZM281.996 92.8728H258.717L236.283 27.3794H257.632L270.055 72.8509H270.779L283.081 27.3794H304.55L281.996 92.8728ZM307.566 74.6601C307.566 67.9057 309.797 62.9203 314.26 59.704C318.723 56.4876 324.572 54.6382 331.809 54.1557C335.428 53.9145 339.85 53.7135 345.077 53.5526C345.72 53.4722 346.524 53.432 347.489 53.432V48.125C347.489 45.8333 346.705 44.0844 345.137 42.8783C343.569 41.6319 341.378 41.0088 338.564 41.0088C335.83 41.0088 333.639 41.5716 331.99 42.6974C330.342 43.8231 329.317 45.4715 328.915 47.6425H309.978C310.26 43.7025 311.546 40.1444 313.838 36.9682C316.17 33.7518 319.466 31.2189 323.728 29.3695C328.03 27.4799 333.136 26.5351 339.046 26.5351C344.514 26.5351 349.419 27.3995 353.761 29.1283C358.143 30.8169 361.581 33.3096 364.073 36.6064C366.606 39.8629 367.873 43.7829 367.873 48.3662V92.8728H348.695V83.7061H348.213C346.363 87.0833 343.851 89.6564 340.674 91.4254C337.498 93.1945 333.659 94.079 329.156 94.079C324.894 94.079 321.135 93.3553 317.878 91.9079C314.662 90.4605 312.129 88.2895 310.28 85.3947C308.47 82.4598 307.566 78.8816 307.566 74.6601ZM326.864 73.8158C326.864 75.9868 327.628 77.6553 329.156 78.8213C330.724 79.9872 332.774 80.5702 335.307 80.5702C337.599 80.5702 339.689 80.1078 341.579 79.1831C343.469 78.2584 344.956 76.9719 346.042 75.3235C347.127 73.6349 347.65 71.7252 347.61 69.5943V65.3728H346.404L335.186 66.0965C332.613 66.4181 330.583 67.2624 329.095 68.6294C327.608 69.9561 326.864 71.6849 326.864 73.8158Z" fill="#7C4DFF"/>
</svg>
